HIERARCHY
ROOT root
{
	OFFSET 0.000000 0.000000 0.000000
	CHANNELS 6 Xposition Yposition Zposition Zrotation Yrotation Xrotation
	JOINT lhip
	{
		OFFSET 0.058581 -0.082280 -0.017664
		CHANNELS 3 Zrotation Yrotation Xrotation
		JOINT lknee
		{
			OFFSET 0.043451 -0.386469 0.008037
			CHANNELS 3 Zrotation Yrotation Xrotation
			JOINT lankle
			{
				OFFSET -0.014790 -0.426874 -0.037428
				CHANNELS 3 Zrotation Yrotation Xrotation
				JOINT ltoe
				{
					OFFSET 0.041054 -0.060286 0.122042
					CHANNELS 3 Zrotation Yrotation Xrotation
					End Site
					{
						OFFSET 0.000000 0.000000 0.000000
					}
				}
			}
		}
	}
	JOINT rhip
	{
		OFFSET -0.060310 -0.090513 -0.013543
		CHANNELS 3 Zrotation Yrotation Xrotation
		JOINT rknee
		{
			OFFSET -0.043257 -0.383688 -0.004843
			CHANNELS 3 Zrotation Yrotation Xrotation
			JOINT rankle
			{
				OFFSET 0.019056 -0.420046 -0.034562
				CHANNELS 3 Zrotation Yrotation Xrotation
				JOINT rtoe
				{
					OFFSET -0.034840 -0.062106 0.130323
					CHANNELS 3 Zrotation Yrotation Xrotation
					End Site
					{
						OFFSET 0.000000 0.000000 0.000000
					}
				}
			}
		}
	}
	JOINT lowerback
	{
		OFFSET 0.004439 0.124404 -0.038385
		CHANNELS 3 Zrotation Yrotation Xrotation
		JOINT upperback
		{
			OFFSET 0.004488 0.137956 0.026820
			CHANNELS 3 Zrotation Yrotation Xrotation
			JOINT chest
			{
				OFFSET -0.002265 0.056032 0.002855
				CHANNELS 3 Zrotation Yrotation Xrotation
				JOINT lowerneck
				{
					OFFSET -0.013390 0.211636 -0.033468
					CHANNELS 3 Zrotation Yrotation Xrotation
					JOINT upperneck
					{
						OFFSET 0.010113 0.088937 0.050410
						CHANNELS 3 Zrotation Yrotation Xrotation
						End Site
						{
							OFFSET 0.000000 0.000000 0.000000
						}
					}
				}
				JOINT lclavicle
				{
					OFFSET 0.071702 0.114000 -0.018898
					CHANNELS 3 Zrotation Yrotation Xrotation
					JOINT lshoulder
					{
						OFFSET 0.122921 0.045205 -0.019046
						CHANNELS 3 Zrotation Yrotation Xrotation
						JOINT lelbow
						{
							OFFSET 0.255332 -0.015649 -0.022946
							CHANNELS 3 Zrotation Yrotation Xrotation
							JOINT lwrist
							{
								OFFSET 0.265709 0.012698 -0.007375
								CHANNELS 3 Zrotation Yrotation Xrotation
								End Site
								{
									OFFSET 0.000000 0.000000 0.000000
								}
							}
						}
					}
				}
				JOINT rclavicle
				{
					OFFSET -0.082954 0.112472 -0.023707
					CHANNELS 3 Zrotation Yrotation Xrotation
					JOINT rshoulder
					{
						OFFSET -0.113228 0.046853 -0.008472
						CHANNELS 3 Zrotation Yrotation Xrotation
						JOINT relbow
						{
							OFFSET -0.260127 -0.014369 -0.031269
							CHANNELS 3 Zrotation Yrotation Xrotation
							JOINT rwrist
							{
								OFFSET -0.269108 0.006794 -0.006027
								CHANNELS 3 Zrotation Yrotation Xrotation
								End Site
								{
									OFFSET 0.000000 0.000000 0.000000
								}
							}
						}
					}
				}
			}
		}
	}
}
MOTION
Frames: 7
Frame Time: 0.033333
1.896949 0.633835 0.993793 -89.371783 2.385973 87.648003 2.711939 -1.804761 2.906463 -4.785145 -14.087140 8.190703 8.232728 7.922946 -15.890252 0.000000 -0.000000 0.000000 1.842101 -2.882456 2.669896 1.837722 0.840391 9.501376 2.777736 -3.496561 -9.954973 0.000000 -0.000000 0.000000 -3.299406 4.426189 2.415629 2.568900 -1.063440 4.828410 1.128264 0.964862 2.434187 2.564731 0.658817 6.193384 3.795246 -6.710681 7.067163 -18.095723 1.821146 4.668842 -62.564982 -5.569820 9.228899 17.564892 -37.836916 16.759212 -1.102795 6.906065 1.363078 18.641172 -0.457745 4.420564 64.182733 0.664600 6.138637 -22.412589 23.820390 4.064438 8.304719 -6.630324 -2.681093 
1.897384 0.633644 0.993762 -89.498231 2.420564 87.693422 2.759686 -2.043023 2.903953 -4.715129 -13.607759 8.078150 7.813373 7.623625 -15.846863 0.000000 -0.000000 0.000000 1.848688 -2.733638 2.594328 1.840646 0.404638 9.518466 2.812944 -3.185454 -9.728727 0.000000 -0.000000 0.000000 -3.277373 4.338757 2.282446 2.618937 -1.018341 5.077905 1.141196 0.926093 2.394841 2.700458 0.700481 5.626897 3.699717 -7.134480 7.668530 -18.365342 2.141231 4.682962 -63.068344 -6.144752 9.149719 17.759613 -38.286285 16.528687 -8.051918 6.833289 0.563581 18.704291 -0.747992 4.165490 64.631756 0.947336 6.181654 -22.927504 24.118308 4.308184 16.189323 -6.321288 -3.412990 
1.897553 0.633393 0.993735 -89.504501 2.494490 87.743526 2.871511 -2.094841 2.882917 -4.698915 -13.182464 7.995112 7.900676 7.228116 -15.877121 0.000000 -0.000000 0.000000 1.876400 -2.725674 2.541841 1.939387 -0.122260 9.443621 2.584332 -3.036903 -9.741412 0.000000 -0.000000 0.000000 -3.220588 4.252879 2.173883 2.677656 -1.064730 5.313302 1.162865 0.898368 2.087676 2.686418 0.806136 5.505188 3.526411 -7.038266 7.934501 -18.419593 2.237036 5.020581 -63.806264 -6.432690 8.995375 17.742708 -38.250280 16.438657 -13.410523 6.611062 -0.708363 18.686500 -0.854411 4.445728 65.244833 0.941789 6.210100 -23.244393 24.452304 4.436479 20.716951 -5.653168 -3.940355 
1.897162 0.633056 0.993772 -89.669183 2.515500 87.702788 2.878746 -2.078715 3.020837 -4.728280 -12.853205 7.860697 8.156173 7.136335 -15.640351 0.000000 -0.000000 0.000000 1.843137 -2.671431 2.477133 2.076728 -0.854782 9.394121 2.317717 -2.982629 -10.019713 0.000000 -0.000000 0.000000 -3.274793 4.261877 2.034235 2.786083 -1.043028 5.458051 1.236024 0.899440 1.982064 2.963011 0.925549 5.402987 3.514459 -7.147140 8.078290 -18.426965 2.250703 5.256387 -65.063407 -6.279857 9.464190 17.387077 -37.654628 17.984524 -15.619533 6.817237 -0.484049 18.812596 -1.083201 4.748766 66.395479 0.741768 6.426859 -23.284888 24.218663 5.206530 21.960686 -5.194519 -4.390690 
1.897338 0.632996 0.993793 -89.678534 2.533365 87.732513 2.884456 -2.124292 2.955017 -4.722032 -12.781048 7.909459 8.158083 7.162859 -15.639366 0.000000 -0.000000 0.000000 1.861274 -2.602382 2.399727 2.076513 -0.924269 9.434297 2.286731 -2.943807 -10.114032 0.000000 -0.000000 0.000000 -3.282038 4.256534 2.042974 2.816877 -1.057099 5.399367 1.263444 0.880405 1.993818 3.044105 1.012382 5.375434 3.536903 -7.165065 8.105859 -18.460907 2.314739 5.297964 -65.484838 -6.125463 9.613306 17.329748 -37.446943 18.411052 -15.510872 6.878092 -0.296468 18.875494 -1.209238 4.875243 66.769329 0.626785 6.494531 -23.212071 24.164782 5.335692 21.567011 -5.171521 -4.673810 
1.897364 0.633039 0.993930 -89.777391 2.561683 87.711654 2.902467 -2.098457 2.976604 -4.726618 -12.754317 7.972468 8.198333 7.215106 -15.640024 0.000000 -0.000000 0.000000 1.879711 -2.567925 2.360280 2.071726 -1.005565 9.538487 2.231676 -2.849291 -10.186186 0.000000 -0.000000 0.000000 -3.295009 4.253564 2.043520 2.883550 -1.101341 5.376444 1.341269 0.838622 2.069852 3.193533 0.820276 5.492366 3.563802 -7.460852 8.116583 -18.647032 2.475660 5.320738 -66.331157 -5.790237 9.837207 17.443159 -36.630313 18.490116 -14.314152 6.830536 -0.553223 19.141236 -1.473928 5.018849 67.306514 0.580205 6.557510 -22.882097 23.638542 5.340740 19.474383 -4.915804 -4.721621 
1.897389 0.633257 0.993849 -89.849526 2.575383 87.740258 2.921443 -2.055649 2.939485 -4.757365 -12.781943 8.025478 8.322958 7.334807 -15.740191 0.000000 -0.000000 0.000000 1.919384 -2.518830 2.222889 2.081310 -0.859623 9.701209 2.121896 -2.998709 -10.399630 0.000000 -0.000000 0.000000 -3.286700 4.146776 2.057809 2.818655 -1.067269 5.208400 1.410035 0.755634 2.166493 3.187247 1.245245 5.256483 3.726557 -6.715398 7.854577 -18.743757 2.655202 5.368328 -67.121718 -5.223394 10.006203 17.524889 -35.704777 18.168455 -11.715276 6.580311 -1.499463 19.548796 -1.717551 5.329168 67.587817 0.649147 6.754769 -22.128342 22.847443 5.397297 15.772113 -4.385884 -4.491689 
